<svg width="20" height="20" viewBox="0 0 20 20" fill="none" xmlns="http://www.w3.org/2000/svg">
<path id="Union" fill-rule="evenodd" clip-rule="evenodd" d="M10 1.06641C14.9336 1.06658 18.9334 5.06541 18.9336 9.99902C18.9334 14.9326 14.9336 18.9315 10 18.9316C8.50718 18.9335 7.0392 18.5598 5.73047 17.8467L2.19336 18.5059C1.99911 18.542 1.79899 18.4794 1.65918 18.3398C1.51971 18.2002 1.45822 18.0007 1.49414 17.8066L2.15234 14.2686C1.46057 13.0001 1.06744 11.5437 1.06738 9.99902C1.06756 5.06541 5.06639 1.06658 10 1.06641ZM10 2.26562C5.72913 2.2658 2.26678 5.72815 2.2666 9.99902C2.26666 11.4081 2.64333 12.7294 3.30078 13.8652C3.37231 13.989 3.39812 14.1348 3.37207 14.2754L2.83301 17.165L5.72363 16.6279L5.83008 16.6182C5.93594 16.6176 6.04103 16.6446 6.13379 16.6982C7.30837 17.3774 8.64221 17.7342 9.99902 17.7324H10C14.2709 17.7322 17.7332 14.2699 17.7334 9.99902C17.7332 5.72815 14.2709 2.2658 10 2.26562ZM10 6.89941C10.3311 6.89959 10.6004 7.16791 10.6006 7.49902V9.39941H12.5C12.8311 9.39959 13.1004 9.66791 13.1006 9.99902C13.1004 10.3301 12.8311 10.5994 12.5 10.5996H10.6006V12.499C10.6004 12.8301 10.3311 13.0994 10 13.0996C9.66889 13.0994 9.40057 12.8301 9.40039 12.499V10.5996H7.5C7.16889 10.5994 6.90057 10.3301 6.90039 9.99902C6.90057 9.66791 7.16889 9.39959 7.5 9.39941H9.40039V7.49902C9.40057 7.16791 9.66889 6.89959 10 6.89941Z" fill="#333333"/>
</svg>
