<svg preserveAspectRatio="none" width="100%" height="100%" overflow="visible" style="display: block;" viewBox="0 0 14.5332 14.5332" fill="none" xmlns="http://www.w3.org/2000/svg">
<path id="Union" d="M7.2666 0C11.2797 0.000176146 14.5332 3.25344 14.5332 7.2666C14.533 11.2796 11.2796 14.533 7.2666 14.5332C3.25355 14.5331 0.000176139 11.2796 0 7.2666C0 3.25341 3.25344 0.000131941 7.2666 0ZM7.2666 1.19922C3.91619 1.19935 1.19922 3.91616 1.19922 7.2666C1.19939 10.6169 3.9163 13.3329 7.2666 13.333C10.6169 13.3328 13.3328 10.6169 13.333 7.2666C13.333 3.91618 10.617 1.19939 7.2666 1.19922ZM9.9043 3.87012C10.1197 3.79862 10.3571 3.85511 10.5176 4.01562C10.678 4.17621 10.7347 4.41353 10.6631 4.62891L9.25 8.86914C9.19033 9.04816 9.04907 9.18922 8.87012 9.24902L4.62988 10.6621C4.41447 10.7338 4.17723 10.677 4.0166 10.5166C3.85598 10.356 3.79937 10.1188 3.87109 9.90332L5.28418 5.66309L5.31055 5.59766C5.37994 5.45001 5.50738 5.33543 5.66406 5.2832L9.9043 3.87012ZM6.32812 6.32715L5.38867 9.14355L8.20605 8.20508L9.14453 5.3877L6.32812 6.32715Z" fill="#333333"/>
</svg>
