<svg width="20" height="20" viewBox="0 0 20 20" fill="none" xmlns="http://www.w3.org/2000/svg">
<path d="M9.99984 10.8333C10.4601 10.8333 10.8332 10.4602 10.8332 10C10.8332 9.53977 10.4601 9.16667 9.99984 9.16667C9.5396 9.16667 9.1665 9.53977 9.1665 10C9.1665 10.4602 9.5396 10.8333 9.99984 10.8333Z" stroke="#333333" stroke-width="2" stroke-linecap="round" stroke-linejoin="round"/>
<path d="M15.8332 10.8333C16.2934 10.8333 16.6665 10.4602 16.6665 10C16.6665 9.53977 16.2934 9.16667 15.8332 9.16667C15.373 9.16667 14.9999 9.53977 14.9999 10C14.9999 10.4602 15.373 10.8333 15.8332 10.8333Z" stroke="#333333" stroke-width="2" stroke-linecap="round" stroke-linejoin="round"/>
<path d="M4.1665 10.8333C4.62674 10.8333 4.99984 10.4602 4.99984 10C4.99984 9.53977 4.62674 9.16667 4.1665 9.16667C3.70626 9.16667 3.33317 9.53977 3.33317 10C3.33317 10.4602 3.70626 10.8333 4.1665 10.8333Z" stroke="#333333" stroke-width="2" stroke-linecap="round" stroke-linejoin="round"/>
</svg>
