<svg width="16" height="16" viewBox="0 0 16 16" fill="none" xmlns="http://www.w3.org/2000/svg">
<path d="M8 2.73438C8.33137 2.73438 8.59961 3.00261 8.59961 3.33398V7.40039H12.666C12.9974 7.40039 13.2666 7.66863 13.2666 8C13.2666 8.33137 12.9974 8.59961 12.666 8.59961H8.59961V12.667C8.59961 12.9984 8.33137 13.2676 8 13.2676C7.66863 13.2676 7.40039 12.9984 7.40039 12.667V8.59961H3.33301C3.00175 8.59948 2.7334 8.33129 2.7334 8C2.7334 7.66871 3.00175 7.40052 3.33301 7.40039H7.40039V3.33398C7.40039 3.00261 7.66863 2.73438 8 2.73438Z" fill="#333333"/>
</svg>
