<svg width="16" height="16" viewBox="0 0 16 16" fill="none" xmlns="http://www.w3.org/2000/svg">
<g transform="translate(2.73,2.73)">
<path d="M5.14828 0.0113781C5.22522 -0.00392556 5.30471 -0.00365925 5.38168 0.0113781C5.40838 0.0165747 5.43353 0.0262078 5.45883 0.0348156C5.47042 0.038754 5.48261 0.0408914 5.49399 0.0455578C5.52279 0.05739 5.54967 0.0725452 5.57602 0.0885265C5.58282 0.0926505 5.59084 0.0948503 5.5975 0.0992687C5.63272 0.1226 5.66472 0.150281 5.69418 0.180323L10.3573 4.84243C10.5914 5.07671 10.5914 5.45678 10.3573 5.69107C10.123 5.92512 9.74289 5.92517 9.50864 5.69107L5.86606 2.04849V9.93325C5.86587 10.2644 5.59762 10.5337 5.26645 10.5338C4.9352 10.5338 4.66703 10.2645 4.66684 9.93325V2.04653L1.02328 5.69107C0.78904 5.9249 0.409841 5.92495 0.175628 5.69107C-0.0586145 5.45682 -0.058471 5.07677 0.175628 4.84243L4.84262 0.175441C4.87056 0.147552 4.90046 0.121231 4.93344 0.0992687C4.94413 0.092159 4.95659 0.088042 4.96762 0.0816906C4.98977 0.0689045 5.01215 0.0564523 5.03598 0.0465343C5.05444 0.0388751 5.07362 0.0337155 5.09262 0.0279796C5.11105 0.0223984 5.12915 0.0151874 5.14828 0.0113781Z" fill="#333333"/>
</g>
</svg>
